<svg xmlns="http://www.w3.org/2000/svg" viewBox="0 0 282.91 85.03"><defs><style>.cls-1{fill:#25456c;}.cls-2{fill:none;stroke:#82070c;stroke-width:7px;}</style></defs><g id="Layer_2" data-name="Layer 2"><g id="Layer_1-2" data-name="Layer 1"><path class="cls-1" d="M16.07,36.88a3.87,3.87,0,0,0-1.19-3.2,5.07,5.07,0,0,0-3.3-1H6V41.2h5.6a4.82,4.82,0,0,0,3.3-1A4.12,4.12,0,0,0,16.07,36.88Zm6,0c0,3.39-.86,5.8-2.58,7.2s-4.17,2.11-7.36,2.11H6V56.51H0V27.72H12.54A10.23,10.23,0,0,1,19.45,30Q22,32.17,22,36.85Zm17.79-4.17H34.17V27.55h5.65Zm-5.65,2.54h5.65V56.51H34.17Z"/><path class="cls-2" d="M59.06,0l-.34,85"/><path class="cls-1" d="M97.47,36.71a5.64,5.64,0,0,0-3.34-4.12,8.21,8.21,0,0,0-3.31-.65,7.19,7.19,0,0,0-5.72,2.64q-2.22,2.61-2.22,7.89c0,3.54.8,6.05,2.42,7.52a8,8,0,0,0,5.51,2.21,7.15,7.15,0,0,0,5-1.74,7.58,7.58,0,0,0,2.38-4.59H91.49V41.06h12V56.51h-4l-.61-3.59a13.84,13.84,0,0,1-3.12,2.89,11,11,0,0,1-5.86,1.46,12.19,12.19,0,0,1-9.38-4q-3.81-4-3.81-10.9T80.57,31.2A13.14,13.14,0,0,1,90.75,27a13.25,13.25,0,0,1,8.81,2.79,10.3,10.3,0,0,1,3.82,6.94Zm19.77-9h6V51.34h14.26v5.17H117.24Zm45.19,24.5a6.83,6.83,0,0,0,5.66-2.64q2.11-2.64,2.11-7.5t-2.11-7.48a6.82,6.82,0,0,0-5.66-2.66,7,7,0,0,0-5.7,2.64q-2.13,2.64-2.13,7.5t2.13,7.5A7,7,0,0,0,162.43,52.22Zm13.79-10.14q0,7.76-4.36,11.87-3.26,3.36-9.43,3.36T153,54q-4.38-4.11-4.38-11.87T153,30.2q3.25-3.36,9.43-3.35t9.43,3.35Q176.23,34.18,176.22,42.08Zm18.45-9.36v6.35h7.07a5.94,5.94,0,0,0,3.07-.7A2.73,2.73,0,0,0,206,35.83a2.58,2.58,0,0,0-1.57-2.66,11,11,0,0,0-3.43-.45Zm0,11.12v7.67h7.07a7.13,7.13,0,0,0,2.95-.5,3.64,3.64,0,0,0,1.91-3.6,3.08,3.08,0,0,0-1.85-3.08,7.24,7.24,0,0,0-2.91-.49Zm8.24-16.12q5.29.09,7.5,3.07a7.26,7.26,0,0,1,1.33,4.39,6.39,6.39,0,0,1-1.33,4.24,6.66,6.66,0,0,1-2.19,1.64,6.39,6.39,0,0,1,3.32,2.54,7.54,7.54,0,0,1,1.14,4.22,8.36,8.36,0,0,1-1.29,4.59,8,8,0,0,1-2,2.27,8.08,8.08,0,0,1-3.28,1.44,20.14,20.14,0,0,1-4.09.39h-13V27.72Zm30.7,17.91h7.3l-3.59-11.32ZM234,27.72h6.79L251,56.51h-6.52l-1.86-5.91H232l-2,5.91H223.7Zm28.66,0h6V51.34h14.25v5.17H262.64Z"/></g></g></svg>