<svg xmlns="http://www.w3.org/2000/svg" viewBox="0 0 400.33 93"><defs><style>.cls-1{fill:#fff;}.cls-2{fill:#25456c;}.cls-3{fill:none;stroke:#82070c;stroke-width:7px;}</style></defs><g id="Layer_2" data-name="Layer 2"><g id="Layer_1-2" data-name="Layer 1"><rect class="cls-1" width="400.33" height="93" rx="12"/><path class="cls-2" d="M27.35,40.87a3.88,3.88,0,0,0-1.19-3.2,5.07,5.07,0,0,0-3.3-1H17.25v8.48h5.61a4.82,4.82,0,0,0,3.3-1A4.13,4.13,0,0,0,27.35,40.87Zm6,0q0,5.1-2.58,7.21t-7.36,2.11H17.25V60.5h-6V31.71H23.82a10.18,10.18,0,0,1,6.91,2.23Q33.31,36.16,33.31,40.83Zm17.78-4.16H45.45V31.54h5.64Zm-5.64,2.54h5.64V60.5H45.45Z"/><path class="cls-3" d="M70.33,4,70,89"/><path class="cls-2" d="M108.74,40.7a5.63,5.63,0,0,0-3.34-4.13,8.2,8.2,0,0,0-3.3-.64,7.18,7.18,0,0,0-5.72,2.64q-2.23,2.61-2.23,7.89T96.57,54a8,8,0,0,0,5.51,2.2,7.17,7.17,0,0,0,5-1.73,7.65,7.65,0,0,0,2.39-4.6h-6.66v-4.8h12V60.5h-4l-.6-3.59A13.88,13.88,0,0,1,107,59.8a11,11,0,0,1-5.86,1.46,12.17,12.17,0,0,1-9.37-4Q88,53.31,88,46.4t3.85-11.21A13.11,13.11,0,0,1,102,31a13.24,13.24,0,0,1,8.81,2.79,10.31,10.31,0,0,1,3.83,6.94Zm19.78-9h6V55.32h14.25V60.5H128.52ZM173.71,56.2a6.85,6.85,0,0,0,5.66-2.63q2.12-2.64,2.11-7.5c0-3.23-.7-5.73-2.11-7.48a6.82,6.82,0,0,0-5.66-2.66A7,7,0,0,0,168,38.57q-2.12,2.63-2.12,7.5t2.12,7.5A7,7,0,0,0,173.71,56.2ZM187.5,46.07q0,7.76-4.36,11.87-3.25,3.36-9.43,3.36t-9.44-3.36q-4.36-4.12-4.37-11.87,0-7.92,4.37-11.88,3.27-3.36,9.44-3.36t9.43,3.36Q187.49,38.15,187.5,46.07ZM206,36.71v6.35H213a5.87,5.87,0,0,0,3.06-.71,2.7,2.7,0,0,0,1.19-2.53,2.58,2.58,0,0,0-1.56-2.66,11,11,0,0,0-3.44-.45Zm0,11.11V55.5H213A6.87,6.87,0,0,0,216,55a3.6,3.6,0,0,0,1.92-3.59A3.09,3.09,0,0,0,216,48.31a7.61,7.61,0,0,0-2.91-.49Zm8.24-16.11c3.53.05,6,1.08,7.5,3.07A7.32,7.32,0,0,1,223,39.17a6.46,6.46,0,0,1-1.33,4.24,6.88,6.88,0,0,1-2.19,1.64,6.34,6.34,0,0,1,3.32,2.54A7.51,7.51,0,0,1,224,51.81a8.41,8.41,0,0,1-1.29,4.59,8,8,0,0,1-5.33,3.71,20,20,0,0,1-4.08.39H200.2V31.71Zm30.69,17.91h7.31l-3.6-11.33Zm.37-17.91h6.8l10.2,28.79h-6.53l-1.85-5.92H243.26l-2,5.92H235Zm28.67,0h6V55.32h14.26V60.5H273.92Z"/><path class="cls-2" d="M313.38,46.34q0-7.55,4.05-11.62a12,12,0,0,1,8.94-3.56q7.26,0,10.63,4.77a10.34,10.34,0,0,1,2,5.37h-6a8.1,8.1,0,0,0-1.5-3.12,6.12,6.12,0,0,0-4.86-1.88A6,6,0,0,0,321.43,39c-1.26,1.75-1.89,4.25-1.89,7.48s.66,5.65,2,7.26a6.37,6.37,0,0,0,5.1,2.4A5.85,5.85,0,0,0,331.45,54,9.06,9.06,0,0,0,333,50.7h6a12.9,12.9,0,0,1-4,7.65,11.67,11.67,0,0,1-8.23,2.95q-6.21,0-9.76-4T313.38,46.34Zm47.26,10.23a4.42,4.42,0,0,0,3.75-1.73,8.12,8.12,0,0,0,1.31-5A8,8,0,0,0,364.39,45a4.4,4.4,0,0,0-3.75-1.74A4.47,4.47,0,0,0,356.87,45a8,8,0,0,0-1.31,4.92,8.12,8.12,0,0,0,1.31,5A4.49,4.49,0,0,0,360.64,56.57Zm10.9-6.68a12.35,12.35,0,0,1-2.7,8q-2.68,3.31-8.18,3.32t-8.18-3.32a12.35,12.35,0,0,1-2.7-8,12.39,12.39,0,0,1,2.7-8c1.79-2.26,4.52-3.38,8.18-3.38s6.39,1.12,8.18,3.38A12.39,12.39,0,0,1,371.54,49.89Zm11.91,4.79h5.91V60.5h-5.91Z"/></g></g></svg>